<svg width="23" height="29" viewBox="0 0 23 29" fill="none" xmlns="http://www.w3.org/2000/svg">
<path d="M19.418 20.2179V20.4187L19.5568 20.5637L22.168 23.2905V24.0256H1.16797V23.2905L3.7791 20.5637L3.91797 20.4187V20.2179V13.0384C3.91797 8.77551 6.07787 5.35457 9.72596 4.44877L10.1055 4.35454V3.96351V2.9871C10.1055 2.0508 10.8231 1.33325 11.668 1.33325C12.5129 1.33325 13.2305 2.0508 13.2305 2.9871V3.96351V4.35487L13.6104 4.44887C17.2708 5.35455 19.418 8.78844 19.418 13.0384V20.2179ZM17.168 22.1538H17.668V21.6538V13.0384C17.668 11.1651 17.1222 9.43246 16.0905 8.15769C15.0514 6.87356 13.5351 6.07684 11.668 6.07684C9.80083 6.07684 8.28458 6.87356 7.24539 8.15769C6.21378 9.43246 5.66797 11.1651 5.66797 13.0384V21.6538V22.1538H6.16797H17.168ZM13.8676 26.4615C13.6465 27.5398 12.7262 28.3333 11.668 28.3333C10.6097 28.3333 9.68948 27.5398 9.46838 26.4615H13.8676Z" fill="white" stroke="white"/>
</svg>
