<svg width="24" height="20" viewBox="0 0 24 20" fill="none" xmlns="http://www.w3.org/2000/svg">
<path d="M19.4487 2.24326L2.28528 5.10293C1.94261 5.16002 1.59486 5.03519 1.36674 4.77319L0.488259 3.76424C0.278983 3.52388 0.421118 3.14725 0.737014 3.10509L21.7368 0.302092C22.6007 0.186769 23.1884 1.15503 22.6873 1.86823L10.8322 18.7399C10.416 19.3323 9.52769 19.2997 9.15591 18.6785L4.42848 10.7791C4.11471 10.2548 4.34037 9.57413 4.90522 9.34113L10.8306 6.89685C11.2742 6.71385 11.6052 7.32456 11.2096 7.59632L7.16965 10.3719C6.73135 10.6731 6.60539 11.2646 6.88298 11.7182L9.36715 15.7773C9.51418 16.0175 9.85685 16.0346 10.0271 15.8102L19.8332 2.87953C20.0518 2.59117 19.8057 2.18379 19.4487 2.24326Z" fill="white" stroke="white" stroke-width="0.4"/>
</svg>
