<svg width="20" height="24" viewBox="0 0 20 24" fill="none" xmlns="http://www.w3.org/2000/svg">
<path d="M17 16.6154V16.8248L17.1492 16.9717L19.5 19.2863V19.8077H0.5V19.2863L2.8508 16.9717L3 16.8248V16.6154V10.4615C3 6.85171 4.9365 3.94304 8.23897 3.16991L8.625 3.07954V2.68308V1.84615C8.625 1.10804 9.23131 0.5 10 0.5C10.7687 0.5 11.375 1.10804 11.375 1.84615V2.68308V3.07986L11.7614 3.17C15.0749 3.943 17 6.86262 17 10.4615V16.6154ZM15 18.3462H15.5V17.8462V10.4615C15.5 8.83532 14.9971 7.32949 14.0466 6.22204C13.0896 5.10704 11.7004 4.42308 10 4.42308C8.29957 4.42308 6.91041 5.10704 5.9534 6.22204C5.00288 7.32949 4.5 8.83532 4.5 10.4615V17.8462V18.3462H5H15ZM11.9334 22.0385C11.7068 22.8727 10.9281 23.5 10 23.5C9.07187 23.5 8.29325 22.8727 8.06663 22.0385H11.9334Z" fill="white" stroke="white"/>
</svg>
