<svg width="32" height="27" viewBox="0 0 32 27" fill="none" xmlns="http://www.w3.org/2000/svg">
<path d="M26.2498 3.86455L2.85288 7.66535C2.51581 7.7201 2.17411 7.59907 1.94665 7.34437L0.504805 5.72978C0.290613 5.48993 0.432654 5.1082 0.751535 5.0667L29.7088 1.29818C30.5772 1.18516 31.1611 2.16398 30.6491 2.87449L14.1403 25.7817C13.7229 26.361 12.8503 26.3287 12.4768 25.7202L5.72964 14.7277C5.40576 14.2 5.63433 13.5078 6.20875 13.2768L13.7647 10.2378C14.4335 9.96883 14.9214 10.8918 14.3225 11.293L9.32363 14.6416C8.87438 14.9425 8.74572 15.546 9.03319 16.004L12.5936 21.6763C12.7412 21.9114 13.0776 21.9284 13.2481 21.7092L26.6297 4.50496C26.8528 4.21805 26.6086 3.80627 26.2498 3.86455Z" fill="white" stroke="white" stroke-width="0.6"/>
</svg>
