<svg width="28" height="28" viewBox="0 0 28 28" fill="none" xmlns="http://www.w3.org/2000/svg">
<path d="M21.5049 7.45799L25.6121 3.39006C25.7865 3.21735 26.0749 3.24574 26.2123 3.44912L27.1597 4.8518C27.2902 5.04501 27.2241 5.30871 27.0179 5.41749L21.9633 8.08274C21.8779 8.12775 21.7789 8.13966 21.6853 8.11618C21.5917 8.09271 21.5101 8.0355 21.456 7.95553C21.4049 7.87991 21.3818 7.78879 21.3908 7.69794C21.3997 7.60709 21.4401 7.52222 21.5049 7.45799ZM22.1842 10.9514C22.1995 11.0266 22.2422 11.0935 22.3039 11.1392C22.3656 11.185 22.442 11.2063 22.5185 11.1991L27.0456 10.7765C27.0892 10.7724 27.1314 10.7592 27.1696 10.7378C27.2077 10.7163 27.2409 10.687 27.267 10.6518C27.2931 10.6166 27.3114 10.5764 27.3209 10.5336C27.3304 10.4909 27.3307 10.4466 27.3219 10.4037L27.0518 9.08417C27.0127 8.89288 26.8092 8.78427 26.6285 8.85826L22.3715 10.6004C22.3042 10.6279 22.2487 10.678 22.2145 10.7421C22.1803 10.8062 22.1696 10.8802 22.1842 10.9514ZM18.804 6.1474C18.8681 6.18971 18.9455 6.20687 19.0215 6.19559C19.0974 6.18431 19.1665 6.14537 19.2156 6.08626L22.1179 2.58626C22.1458 2.55255 22.1663 2.51334 22.1781 2.47117C22.1899 2.429 22.1927 2.38482 22.1862 2.34152C22.1798 2.29821 22.1643 2.25674 22.1408 2.21982C22.1173 2.18289 22.0862 2.15134 22.0497 2.12721L20.9257 1.38516C20.7627 1.27759 20.5421 1.34463 20.4666 1.52477L18.6883 5.76683C18.6602 5.83381 18.6564 5.90849 18.6775 5.97798C18.6986 6.04747 18.7434 6.10739 18.804 6.1474Z" fill="white"/>
<path d="M11.9462 26.241L11.0719 26.7524C10.3611 27.168 9.4481 26.9288 9.03248 26.2181L6.71428 22.2539C6.29865 21.5432 7.469 21 7.469 21L8.71624 20.2375C8.71624 20.2375 9.7467 19.5268 10.1623 20.2375L12.4805 24.2016C12.8962 24.9124 12.6569 25.8254 11.9462 26.241Z" fill="white"/>
<path d="M6.58649 22.3506L15.0582 17.7383C15.0582 17.7383 12.3595 18.1288 10.348 14.6087C7.91322 10.3478 9.26688 8.67065 9.26688 8.67065L1.60894 14.36C1.55956 14.3915 -0.510259 16.2853 1.76283 19.8445C4.03592 23.4036 6.58649 22.3506 6.58649 22.3506Z" fill="white"/>
<path d="M22.2526 17.2309L22.1987 17.2654L22.1601 17.307C22.1483 17.3113 22.1178 17.3179 22.0547 17.3136C21.9258 17.305 21.7295 17.2524 21.4627 17.1291C20.9335 16.8847 20.2498 16.4204 19.492 15.7823C17.9818 14.5106 16.2681 12.6261 15.03 10.6876C13.8043 8.76845 13.1554 6.72739 12.9409 5.0965C12.8335 4.27972 12.8374 3.58396 12.9221 3.06857C12.9644 2.81078 13.0245 2.61277 13.0911 2.47189C13.1592 2.32792 13.2199 2.27287 13.2465 2.25589C13.2489 2.25437 13.2568 2.24956 13.2775 2.24637C13.2998 2.24292 13.3376 2.24138 13.395 2.25032C13.5138 2.26884 13.6817 2.32676 13.9005 2.445C14.3375 2.68114 14.8854 3.10707 15.5025 3.699C16.7308 4.87743 18.1535 6.63669 19.4039 8.59445L19.8253 8.32532L19.4039 8.59445C20.6455 10.5384 21.5638 12.6558 22.0398 14.3574C22.2786 15.211 22.3994 15.9366 22.404 16.4716C22.4063 16.7397 22.3791 16.9369 22.3372 17.0699C22.3168 17.1348 22.2955 17.1762 22.2789 17.2008C22.2633 17.2242 22.2534 17.2305 22.2526 17.2309ZM22.1662 17.3039C22.1664 17.304 22.165 17.3051 22.1614 17.3065C22.1642 17.3044 22.166 17.3037 22.1662 17.3039Z" stroke="white"/>
<path d="M22.5182 17.652C22.5182 17.652 18.7191 14.6187 16.1851 10.6512C13.6512 6.6837 12.0073 2.4551 12.9332 1.86371C12.9866 1.82964 13.0464 1.80716 13.1117 1.79475C12.6749 1.78474 12.2469 2.01257 11.9936 2.49688C10.8776 4.63123 8.02925 9.36662 8.02925 9.36662C8.02925 9.36662 6.61585 11.2697 9.10047 15.1599C11.5851 19.0501 13.9839 18.5633 13.9839 18.5633C13.9839 18.5633 19.4331 18.0066 21.8274 17.8923C22.3942 17.8652 22.5182 17.652 22.5182 17.652Z" fill="white"/>
</svg>
