<svg width="28" height="28" viewBox="0 0 28 28" fill="none" xmlns="http://www.w3.org/2000/svg">
<path d="M21.5069 7.45799L25.6141 3.39006C25.7885 3.21735 26.0769 3.24574 26.2143 3.44912L27.1617 4.8518C27.2922 5.04501 27.2261 5.30871 27.0199 5.41749L21.9653 8.08274C21.8799 8.12775 21.7809 8.13966 21.6873 8.11618C21.5937 8.09271 21.5121 8.0355 21.458 7.95553C21.4069 7.87991 21.3838 7.78879 21.3928 7.69794C21.4017 7.60709 21.4421 7.52222 21.5069 7.45799ZM22.1862 10.9514C22.2015 11.0266 22.2442 11.0935 22.3059 11.1392C22.3676 11.185 22.444 11.2063 22.5205 11.1991L27.0476 10.7765C27.0912 10.7724 27.1334 10.7592 27.1716 10.7378C27.2097 10.7163 27.2429 10.687 27.269 10.6518C27.2951 10.6166 27.3134 10.5764 27.3229 10.5336C27.3324 10.4909 27.3327 10.4466 27.3239 10.4037L27.0538 9.08417C27.0147 8.89288 26.8112 8.78427 26.6305 8.85826L22.3735 10.6004C22.3062 10.6279 22.2507 10.678 22.2165 10.7421C22.1823 10.8062 22.1716 10.8802 22.1862 10.9514ZM18.806 6.1474C18.8701 6.18971 18.9475 6.20687 19.0235 6.19559C19.0994 6.18431 19.1685 6.14537 19.2176 6.08626L22.1199 2.58626C22.1478 2.55255 22.1683 2.51334 22.1801 2.47117C22.1919 2.429 22.1947 2.38482 22.1882 2.34152C22.1818 2.29821 22.1663 2.25674 22.1428 2.21982C22.1193 2.18289 22.0882 2.15134 22.0517 2.12721L20.9277 1.38516C20.7647 1.27759 20.5441 1.34463 20.4686 1.52477L18.6903 5.76683C18.6622 5.83381 18.6584 5.90849 18.6795 5.97798C18.7006 6.04747 18.7454 6.10739 18.806 6.1474Z" fill="#090909"/>
<path d="M11.9452 26.241L11.0709 26.7524C10.3601 27.168 9.44713 26.9288 9.03151 26.2181L6.71331 22.2539C6.29768 21.5432 7.46803 21 7.46803 21L8.71527 20.2375C8.71527 20.2375 9.74573 19.5268 10.1613 20.2375L12.4795 24.2016C12.8952 24.9124 12.6559 25.8254 11.9452 26.241Z" fill="#090909"/>
<path d="M6.58551 22.3506L15.0572 17.7383C15.0572 17.7383 12.3585 18.1288 10.347 14.6087C7.91224 10.3478 9.2659 8.67065 9.2659 8.67065L1.60796 14.36C1.55858 14.3915 -0.511235 16.2853 1.76185 19.8445C4.03494 23.4036 6.58551 22.3506 6.58551 22.3506Z" fill="#090909"/>
<path d="M22.2526 17.2309L22.1987 17.2654L22.1601 17.307C22.1483 17.3113 22.1178 17.3179 22.0547 17.3136C21.9258 17.305 21.7295 17.2524 21.4627 17.1291C20.9335 16.8847 20.2498 16.4204 19.492 15.7823C17.9818 14.5106 16.2681 12.6261 15.03 10.6876C13.8043 8.76845 13.1554 6.72739 12.9409 5.0965C12.8335 4.27972 12.8374 3.58396 12.9221 3.06857C12.9644 2.81078 13.0245 2.61277 13.0911 2.47189C13.1592 2.32792 13.2199 2.27287 13.2465 2.25589C13.2489 2.25437 13.2568 2.24956 13.2775 2.24637C13.2998 2.24292 13.3376 2.24138 13.395 2.25032C13.5138 2.26884 13.6817 2.32676 13.9005 2.445C14.3375 2.68114 14.8854 3.10707 15.5025 3.699C16.7308 4.87743 18.1535 6.63669 19.4039 8.59445L19.8253 8.32532L19.4039 8.59445C20.6455 10.5384 21.5638 12.6558 22.0398 14.3574C22.2786 15.211 22.3994 15.9366 22.404 16.4716C22.4063 16.7397 22.3791 16.9369 22.3372 17.0699C22.3168 17.1348 22.2955 17.1762 22.2789 17.2008C22.2633 17.2242 22.2534 17.2305 22.2526 17.2309ZM22.1662 17.3039C22.1664 17.304 22.165 17.3051 22.1614 17.3065C22.1642 17.3044 22.166 17.3037 22.1662 17.3039Z" stroke="#090909"/>
<path d="M22.5191 17.652C22.5191 17.652 18.72 14.6187 16.186 10.6512C13.6521 6.6837 12.0082 2.4551 12.9341 1.86371C12.9875 1.82964 13.0473 1.80716 13.1126 1.79475C12.6758 1.78474 12.2478 2.01257 11.9945 2.49688C10.8785 4.63123 8.03023 9.36662 8.03023 9.36662C8.03023 9.36662 6.61683 11.2697 9.10145 15.1599C11.586 19.0501 13.9848 18.5633 13.9848 18.5633C13.9848 18.5633 19.434 18.0066 21.8283 17.8923C22.3951 17.8652 22.5191 17.652 22.5191 17.652Z" fill="#090909"/>
</svg>
